<svg width="353" height="353" viewBox="0 0 353 353" fill="none" xmlns="http://www.w3.org/2000/svg">
<g clip-path="url(#clip0)">
<path d="M329.461 11.8831H23.5393C10.5604 11.8831 0 22.4441 0 35.4224V229.566C0 232.814 2.63578 235.449 5.8831 235.449H347.116C350.364 235.449 352.999 232.814 352.999 229.566V35.4224C353 22.4441 342.44 11.8831 329.461 11.8831ZM341.233 223.683H11.7669V35.4224C11.7669 28.9271 17.0502 23.65 23.5393 23.65H329.461C335.95 23.65 341.233 28.9271 341.233 35.4224V223.683Z" fill="black"/>
<path d="M347.117 223.683H5.8831C2.63578 223.683 0 226.319 0 229.566V258.977C0 271.956 10.5604 282.516 23.5393 282.516H329.461C342.44 282.516 353 271.956 353 258.977V229.566C353 226.319 350.364 223.683 347.117 223.683ZM341.233 258.978C341.233 265.473 335.95 270.75 329.461 270.75H23.5393C17.0502 270.75 11.7669 265.473 11.7669 258.978V235.45H341.234V258.978H341.233Z" fill="black"/>
<path d="M194.15 241.217H158.85C155.603 241.217 152.967 243.853 152.967 247.1C152.967 250.347 155.603 252.983 158.85 252.983H194.15C197.397 252.983 200.033 250.347 200.033 247.1C200.033 243.853 197.397 241.217 194.15 241.217Z" fill="black"/>
<path d="M323.583 35.4169H29.4169C26.1696 35.4169 23.5338 38.0527 23.5338 41.3V229.567C23.5338 232.814 26.1696 235.45 29.4169 235.45H323.584C326.831 235.45 329.467 232.814 329.467 229.567V41.3C329.467 38.0527 326.831 35.4169 323.583 35.4169ZM317.7 223.683H35.3V47.1831H317.7V223.683Z" fill="black"/>
<path d="M252.983 317.817H100.017C90.2859 317.817 82.3669 325.736 82.3669 335.467C82.3669 345.198 90.2859 353.117 100.017 353.117H252.984C262.715 353.117 270.634 345.198 270.634 335.467C270.634 325.736 262.714 317.817 252.983 317.817ZM252.983 341.35H100.017C96.7696 341.35 94.1338 338.709 94.1338 335.467C94.1338 332.225 96.7696 329.584 100.017 329.584H252.984C256.231 329.584 258.867 332.225 258.867 335.467C258.867 338.709 256.231 341.35 252.983 341.35Z" fill="black"/>
<path d="M241.217 317.817C221.696 317.817 211.8 303.962 211.8 276.634C211.8 273.386 209.164 270.751 205.917 270.751H147.084C143.836 270.751 141.201 273.386 141.201 276.634C141.201 303.962 131.305 317.817 111.784 317.817C108.536 317.817 105.901 320.453 105.901 323.7C105.901 326.947 108.536 329.583 111.784 329.583H241.217C244.464 329.583 247.1 326.947 247.1 323.7C247.1 320.453 244.464 317.817 241.217 317.817ZM140.441 317.817C147.684 309.792 151.949 297.843 152.808 282.517H200.198C201.051 297.843 205.316 309.792 212.565 317.817H140.441Z" fill="black"/>
<path d="M281.129 185.23L266.927 171.027L274.828 163.126C276.294 161.661 276.882 159.532 276.376 157.525C275.869 155.519 274.346 153.93 272.363 153.331L213.53 135.681C211.453 135.057 209.212 135.628 207.682 137.157C206.146 138.687 205.582 140.934 206.205 143.005L223.855 201.838C224.449 203.827 226.043 205.351 228.05 205.857C230.05 206.351 232.186 205.774 233.651 204.309L241.97 195.984L256.172 210.193C257.272 211.298 258.772 211.916 260.331 211.916C261.89 211.916 263.39 211.298 264.491 210.193L281.129 193.548C283.429 191.248 283.429 187.53 281.129 185.23ZM260.331 197.714L247.4 184.777C245.9 183.276 243.935 182.529 241.97 182.529C239.999 182.529 238.034 183.282 236.54 184.77L232.292 189.018L220.613 150.088L259.543 161.767L254.989 166.321C253.736 167.58 253.048 169.251 253.048 171.027C253.048 172.81 253.742 174.493 255.001 175.74L268.65 189.389L260.331 197.714Z" fill="black"/>
<path d="M247.1 58.95H82.3669C79.1196 58.95 76.4838 61.5858 76.4838 64.8331V94.25C76.4838 97.4973 79.1196 100.133 82.3669 100.133H247.1C250.347 100.133 252.983 97.4973 252.983 94.25V64.8331C252.983 61.5858 250.347 58.95 247.1 58.95ZM241.217 88.3669H88.25V70.7169H241.217V88.3669V88.3669Z" fill="black"/>
<path d="M152.967 117.667H105.9C102.653 117.667 100.017 120.303 100.017 123.55V147.083C100.017 150.33 102.653 152.966 105.9 152.966H152.967C156.214 152.966 158.85 150.33 158.85 147.083V123.55C158.85 120.303 156.214 117.667 152.967 117.667ZM147.083 141.2H111.783V129.433H147.083V141.2V141.2Z" fill="black"/>
<path d="M247.1 58.95H82.3669C79.1196 58.95 76.4838 61.5858 76.4838 64.8331V176.616C76.4838 179.864 79.1196 182.499 82.3669 182.499H222.426C224.291 182.499 226.038 181.623 227.144 180.128C228.257 178.634 228.598 176.704 228.062 174.922L220.614 150.088L245.412 157.531C247.195 158.066 249.125 157.725 250.613 156.613C252.107 155.507 252.984 153.754 252.984 151.894V64.8331C252.983 61.5858 250.347 58.95 247.1 58.95ZM241.217 143.988L213.524 135.681C211.447 135.057 209.206 135.628 207.676 137.157C206.14 138.693 205.576 140.934 206.199 143.012L214.518 170.734H88.25V70.7169H241.217V143.988V143.988Z" fill="black"/>
</g>
<defs>
<clipPath id="clip0">
<rect width="353" height="353" fill="white"/>
</clipPath>
</defs>
</svg>
