<svg width="936" height="491" viewBox="0 0 936 491" fill="none" xmlns="http://www.w3.org/2000/svg">
<g clip-path="url(#clip0)">
<g opacity="0.1">
<path opacity="0.1" d="M409.432 322.088C414.799 322.088 419.15 316.389 419.15 309.359C419.15 302.329 414.799 296.63 409.432 296.63C404.064 296.63 399.713 302.329 399.713 309.359C399.713 316.389 404.064 322.088 409.432 322.088Z" fill="#3F3D56"/>
<path opacity="0.1" d="M417.126 254.897C418.482 252.53 419.184 249.844 419.159 247.115C419.159 240.084 414.804 234.386 409.432 234.386C404.06 234.386 399.679 240.101 399.679 247.132C399.654 249.861 400.356 252.547 401.712 254.915C400.379 257.29 399.679 259.969 399.679 262.693C399.679 265.417 400.379 268.096 401.712 270.471C400.379 272.847 399.679 275.526 399.679 278.25C399.679 280.974 400.379 283.652 401.712 286.028C400.353 288.395 399.652 291.082 399.679 293.811C399.679 300.833 404.034 306.54 409.398 306.54C414.761 306.54 419.125 300.833 419.125 293.811C419.152 291.082 418.45 288.395 417.092 286.028C418.425 283.652 419.124 280.974 419.124 278.25C419.124 275.526 418.425 272.847 417.092 270.471C418.425 268.096 419.124 265.417 419.124 262.693C419.124 259.969 418.425 257.29 417.092 254.915L417.126 254.897Z" fill="#3F3D56"/>
<path opacity="0.1" d="M409.432 244.304C414.799 244.304 419.15 238.605 419.15 231.575C419.15 224.545 414.799 218.846 409.432 218.846C404.064 218.846 399.713 224.545 399.713 231.575C399.713 238.605 404.064 244.304 409.432 244.304Z" fill="#3F3D56"/>
<path opacity="0.1" d="M409.432 228.747C414.799 228.747 419.15 223.048 419.15 216.018C419.15 208.988 414.799 203.289 409.432 203.289C404.064 203.289 399.713 208.988 399.713 216.018C399.713 223.048 404.064 228.747 409.432 228.747Z" fill="#3F3D56"/>
<path opacity="0.1" d="M373.051 109.547C371.719 107.858 370.509 106.077 369.43 104.216L394.965 100.021L367.346 100.226C364.702 94.4565 363.262 88.2074 363.115 81.8617C362.968 75.516 364.117 69.207 366.492 63.3208L403.548 82.551L369.387 57.4176C372.563 51.8326 376.859 46.9652 382.006 43.1213C387.153 39.2775 393.04 36.5403 399.295 35.0819C405.551 33.6234 412.04 33.4753 418.356 34.6467C424.671 35.8181 430.677 38.2838 435.994 41.8888C441.311 45.4937 445.825 50.16 449.252 55.5942C452.679 61.0285 454.946 67.1132 455.909 73.4659C456.872 79.8186 456.511 86.3019 454.848 92.5083C453.186 98.7147 450.258 104.51 446.248 109.53C448.319 112.161 450.1 115.008 451.56 118.022L418.399 135.295L453.746 123.429C456.231 130.769 456.845 138.613 455.535 146.251C454.224 153.889 451.029 161.078 446.24 167.169C451.642 174.039 455.003 182.292 455.939 190.983C456.874 199.673 455.345 208.452 451.528 216.315C447.71 224.178 441.758 230.807 434.352 235.446C426.945 240.084 418.383 242.543 409.645 242.543C400.907 242.543 392.345 240.084 384.939 235.446C377.532 230.807 371.58 224.178 367.762 216.315C363.945 208.452 362.417 199.673 363.352 190.983C364.287 182.292 367.648 174.039 373.051 167.169C366.594 158.96 363.084 148.817 363.084 138.371C363.084 127.925 366.594 117.782 373.051 109.573V109.547Z" fill="#6C63FF"/>
<path opacity="0.1" d="M456.206 138.345C456.223 148.794 452.711 158.942 446.24 167.144C451.642 174.014 455.003 182.266 455.939 190.957C456.874 199.648 455.345 208.427 451.528 216.289C447.71 224.152 441.758 230.782 434.352 235.42C426.945 240.058 418.383 242.518 409.645 242.518C400.907 242.518 392.345 240.058 384.939 235.42C377.532 230.782 371.58 224.152 367.762 216.289C363.945 208.427 362.417 199.648 363.352 190.957C364.287 182.266 367.648 174.014 373.051 167.144C366.808 159.216 456.206 133.117 456.206 138.345Z" fill="black"/>
</g>
<g opacity="0.1">
<path opacity="0.1" d="M522.896 291.65C526.91 291.65 530.164 287.392 530.164 282.141C530.164 276.89 526.91 272.633 522.896 272.633C518.882 272.633 515.628 276.89 515.628 282.141C515.628 287.392 518.882 291.65 522.896 291.65Z" fill="#3F3D56"/>
<path opacity="0.1" d="M528.635 241.451C529.645 239.683 530.167 237.678 530.147 235.642C530.147 230.388 526.893 226.125 522.887 226.125C518.882 226.125 515.62 230.396 515.62 235.642C515.598 237.679 516.123 239.685 517.14 241.451C516.143 243.226 515.62 245.228 515.62 247.264C515.62 249.301 516.143 251.302 517.14 253.078C516.143 254.853 515.62 256.855 515.62 258.891C515.62 260.928 516.143 262.929 517.14 264.705C516.123 266.47 515.598 268.477 515.62 270.514C515.62 275.768 518.874 280.031 522.887 280.031C526.901 280.031 530.147 275.76 530.147 270.514C530.167 268.478 529.645 266.473 528.635 264.705C529.624 262.927 530.142 260.926 530.142 258.891C530.142 256.857 529.624 254.856 528.635 253.078C529.624 251.3 530.142 249.299 530.142 247.264C530.142 245.23 529.624 243.229 528.635 241.451V241.451Z" fill="#3F3D56"/>
<path opacity="0.1" d="M522.896 233.523C526.91 233.523 530.164 229.266 530.164 224.014C530.164 218.763 526.91 214.506 522.896 214.506C518.882 214.506 515.628 218.763 515.628 224.014C515.628 229.266 518.882 233.523 522.896 233.523Z" fill="#3F3D56"/>
<path opacity="0.1" d="M522.896 221.896C526.91 221.896 530.164 217.639 530.164 212.387C530.164 207.136 526.91 202.879 522.896 202.879C518.882 202.879 515.628 207.136 515.628 212.387C515.628 217.639 518.882 221.896 522.896 221.896Z" fill="#3F3D56"/>
<path opacity="0.1" d="M495.704 132.827C494.707 131.567 493.802 130.236 492.997 128.846L512.084 125.71L491.443 125.864C489.463 121.553 488.382 116.883 488.268 112.14C488.153 107.397 489.007 102.681 490.777 98.2788L518.472 112.657L492.929 93.862C495.318 89.7171 498.535 86.1093 502.38 83.2637C506.225 80.4181 510.615 78.3959 515.276 77.3232C519.937 76.2506 524.769 76.1505 529.47 77.0293C534.172 77.9081 538.642 79.7469 542.601 82.4309C546.56 85.1149 549.924 88.5865 552.483 92.629C555.041 96.6714 556.739 101.198 557.47 105.926C558.201 110.654 557.951 115.483 556.733 120.109C555.516 124.736 553.359 129.063 550.395 132.818C551.941 134.787 553.272 136.914 554.367 139.166L529.6 152.04L556.015 143.172C557.87 148.657 558.329 154.519 557.349 160.226C556.369 165.933 553.982 171.306 550.404 175.858C554.447 180.99 556.963 187.157 557.666 193.653C558.369 200.149 557.229 206.712 554.378 212.591C551.527 218.469 547.079 223.426 541.543 226.895C536.007 230.363 529.607 232.202 523.076 232.202C516.544 232.202 510.144 230.363 504.608 226.895C499.072 223.426 494.624 218.469 491.773 212.591C488.922 206.712 487.782 200.149 488.485 193.653C489.188 187.157 491.704 180.99 495.747 175.858C490.922 169.723 488.299 162.144 488.299 154.338C488.299 146.532 490.922 138.953 495.747 132.818L495.704 132.827Z" fill="#6C63FF"/>
<path opacity="0.1" d="M557.843 154.347C557.854 162.154 555.23 169.737 550.395 175.866C554.438 180.999 556.955 187.166 557.658 193.662C558.36 200.158 557.221 206.721 554.37 212.599C551.518 218.478 547.07 223.435 541.535 226.903C535.999 230.371 529.599 232.211 523.067 232.211C516.535 232.211 510.135 230.371 504.599 226.903C499.064 223.435 494.616 218.478 491.764 212.599C488.913 206.721 487.774 200.158 488.476 193.662C489.179 187.166 491.696 180.999 495.739 175.866C491.059 169.946 557.843 150.442 557.843 154.347Z" fill="black"/>
</g>
<g opacity="0.1">
<path opacity="0.1" d="M886.962 287.916C892.33 287.916 896.681 282.217 896.681 275.187C896.681 268.157 892.33 262.458 886.962 262.458C881.595 262.458 877.244 268.157 877.244 275.187C877.244 282.217 881.595 287.916 886.962 287.916Z" fill="#3F3D56"/>
<path opacity="0.1" d="M879.268 220.725C877.912 218.357 877.21 215.671 877.235 212.943C877.235 205.912 881.591 200.214 886.962 200.214C892.334 200.214 896.681 205.912 896.681 212.943C896.706 215.671 896.004 218.357 894.649 220.725C895.981 223.101 896.681 225.78 896.681 228.504C896.681 231.228 895.981 233.906 894.649 236.282C895.981 238.658 896.681 241.336 896.681 244.061C896.681 246.785 895.981 249.463 894.649 251.839C896.007 254.206 896.708 256.893 896.681 259.622C896.681 266.644 892.326 272.351 886.962 272.351C881.599 272.351 877.235 266.644 877.235 259.622C877.208 256.893 877.91 254.206 879.268 251.839C877.935 249.463 877.236 246.785 877.236 244.061C877.236 241.336 877.935 238.658 879.268 236.282C877.935 233.906 877.236 231.228 877.236 228.504C877.236 225.78 877.935 223.101 879.268 220.725V220.725Z" fill="#3F3D56"/>
<path opacity="0.1" d="M886.962 210.132C892.33 210.132 896.681 204.433 896.681 197.403C896.681 190.373 892.33 184.674 886.962 184.674C881.595 184.674 877.244 190.373 877.244 197.403C877.244 204.433 881.595 210.132 886.962 210.132Z" fill="#3F3D56"/>
<path opacity="0.1" d="M886.962 194.575C892.33 194.575 896.681 188.876 896.681 181.846C896.681 174.816 892.33 169.117 886.962 169.117C881.595 169.117 877.244 174.816 877.244 181.846C877.244 188.876 881.595 194.575 886.962 194.575Z" fill="#3F3D56"/>
<path opacity="0.1" d="M923.344 75.3748C924.675 73.686 925.885 71.9046 926.965 70.0439L901.429 65.8493L929.048 66.0544C931.692 60.2843 933.132 54.0353 933.279 47.6896C933.426 41.3439 932.277 35.0349 929.902 29.1486L892.847 48.3789L927.007 23.2454C923.831 17.6604 919.535 12.793 914.388 8.94919C909.241 5.10535 903.354 2.36818 897.099 0.90975C890.843 -0.54868 884.354 -0.696835 878.038 0.474597C871.723 1.64603 865.718 4.11172 860.401 7.71667C855.084 11.3216 850.57 15.9879 847.142 21.4221C843.715 26.8564 841.449 32.9411 840.486 39.2938C839.522 45.6465 839.884 52.1298 841.546 58.3362C843.209 64.5426 846.136 70.3379 850.146 75.3577C848.075 77.9891 846.294 80.8361 844.834 83.8494L877.995 101.123L842.648 89.2571C840.163 96.5972 839.549 104.441 840.86 112.079C842.17 119.717 845.365 126.906 850.154 132.997C844.752 139.867 841.391 148.12 840.456 156.81C839.52 165.501 841.049 174.28 844.866 182.143C848.684 190.006 854.636 196.635 862.042 201.273C869.449 205.912 878.011 208.371 886.749 208.371C895.487 208.371 904.049 205.912 911.455 201.273C918.862 196.635 924.814 190.006 928.632 182.143C932.449 174.28 933.978 165.501 933.042 156.81C932.107 148.12 928.746 139.867 923.344 132.997C929.8 124.787 933.31 114.645 933.31 104.199C933.31 93.7529 929.8 83.6102 923.344 75.4004V75.3748Z" fill="#6C63FF"/>
<path opacity="0.1" d="M840.188 104.173C840.171 114.622 843.683 124.77 850.154 132.972C844.752 139.842 841.391 148.094 840.455 156.785C839.52 165.476 841.049 174.254 844.866 182.117C848.684 189.98 854.636 196.61 862.042 201.248C869.449 205.886 878.011 208.346 886.749 208.346C895.487 208.346 904.049 205.886 911.455 201.248C918.862 196.61 924.814 189.98 928.632 182.117C932.449 174.254 933.977 165.476 933.042 156.785C932.107 148.094 928.746 139.842 923.343 132.972C929.586 125.044 840.188 98.945 840.188 104.173Z" fill="black"/>
</g>
<g opacity="0.1">
<path opacity="0.1" d="M793.14 286.524C797.154 286.524 800.408 282.266 800.408 277.015C800.408 271.764 797.154 267.507 793.14 267.507C789.127 267.507 785.873 271.764 785.873 277.015C785.873 282.266 789.127 286.524 793.14 286.524Z" fill="#3F3D56"/>
<path opacity="0.1" d="M787.402 236.325C786.391 234.557 785.87 232.552 785.89 230.516C785.89 225.262 789.144 220.999 793.149 220.999C797.154 220.999 800.417 225.27 800.417 230.516C800.439 232.553 799.914 234.559 798.897 236.325C799.893 238.1 800.416 240.102 800.416 242.138C800.416 244.175 799.893 246.176 798.897 247.952C799.893 249.727 800.416 251.729 800.416 253.765C800.416 255.802 799.893 257.803 798.897 259.579C799.914 261.344 800.439 263.351 800.417 265.388C800.417 270.642 797.163 274.905 793.149 274.905C789.135 274.905 785.89 270.634 785.89 265.388C785.87 263.352 786.391 261.347 787.402 259.579C786.413 257.801 785.894 255.8 785.894 253.765C785.894 251.731 786.413 249.73 787.402 247.952C786.413 246.174 785.894 244.173 785.894 242.138C785.894 240.104 786.413 238.103 787.402 236.325Z" fill="#3F3D56"/>
<path opacity="0.1" d="M793.14 228.397C797.154 228.397 800.408 224.14 800.408 218.888C800.408 213.637 797.154 209.38 793.14 209.38C789.127 209.38 785.873 213.637 785.873 218.888C785.873 224.14 789.127 228.397 793.14 228.397Z" fill="#3F3D56"/>
<path opacity="0.1" d="M793.14 216.77C797.154 216.77 800.408 212.513 800.408 207.262C800.408 202.01 797.154 197.753 793.14 197.753C789.127 197.753 785.873 202.01 785.873 207.262C785.873 212.513 789.127 216.77 793.14 216.77Z" fill="#3F3D56"/>
<path opacity="0.1" d="M820.332 127.701C821.33 126.441 822.234 125.11 823.04 123.72L803.952 120.584L824.594 120.738C826.574 116.427 827.654 111.757 827.769 107.014C827.883 102.271 827.03 97.5545 825.26 93.1528L797.564 107.531L823.108 88.736C820.719 84.5911 817.502 80.9833 813.657 78.1377C809.812 75.2921 805.422 73.2699 800.761 72.1972C796.1 71.1246 791.268 71.0245 786.566 71.9033C781.865 72.7821 777.395 74.6209 773.436 77.3049C769.476 79.9889 766.112 83.4605 763.554 87.503C760.996 91.5455 759.298 96.072 758.567 100.8C757.835 105.528 758.086 110.357 759.303 114.983C760.521 119.61 762.678 123.937 765.641 127.692C764.096 129.661 762.764 131.788 761.67 134.04L786.437 146.914L760.073 138.055C758.218 143.54 757.759 149.401 758.739 155.109C759.719 160.816 762.106 166.188 765.684 170.74C761.641 175.873 759.125 182.04 758.422 188.536C757.719 195.032 758.859 201.595 761.71 207.473C764.561 213.352 769.009 218.309 774.545 221.777C780.081 225.245 786.481 227.085 793.012 227.085C799.544 227.085 805.944 225.245 811.48 221.777C817.016 218.309 821.464 213.352 824.315 207.473C827.166 201.595 828.306 195.032 827.603 188.536C826.9 182.04 824.383 175.873 820.341 170.74C825.166 164.605 827.789 157.026 827.789 149.22C827.789 141.415 825.166 133.835 820.341 127.701H820.332Z" fill="#6C63FF"/>
<path opacity="0.1" d="M758.194 149.22C758.183 157.028 760.807 164.611 765.641 170.74C761.599 175.872 759.082 182.039 758.379 188.536C757.676 195.032 758.816 201.594 761.667 207.473C764.518 213.352 768.966 218.309 774.502 221.777C780.038 225.245 786.438 227.085 792.97 227.085C799.502 227.085 805.902 225.245 811.437 221.777C816.973 218.309 821.421 213.352 824.273 207.473C827.124 201.594 828.263 195.032 827.56 188.536C826.858 182.039 824.341 175.872 820.298 170.74C824.978 164.82 758.194 145.316 758.194 149.22Z" fill="black"/>
</g>
<g opacity="0.1">
<path opacity="0.1" d="M52.5986 287.916C57.966 287.916 62.3173 282.217 62.3173 275.187C62.3173 268.157 57.966 262.458 52.5986 262.458C47.2311 262.458 42.8799 268.157 42.8799 275.187C42.8799 282.217 47.2311 287.916 52.5986 287.916Z" fill="#3F3D56"/>
<path opacity="0.1" d="M60.2847 220.725C61.6405 218.357 62.342 215.671 62.3172 212.943C62.3172 205.912 57.9617 200.214 52.5985 200.214C47.2353 200.214 42.8798 205.912 42.8798 212.943C42.8525 215.671 43.551 218.357 44.9039 220.725C43.5763 223.103 42.8793 225.781 42.8793 228.504C42.8793 231.227 43.5763 233.905 44.9039 236.282C43.5763 238.66 42.8793 241.337 42.8793 244.061C42.8793 246.784 43.5763 249.462 44.9039 251.839C43.5483 254.207 42.8496 256.893 42.8798 259.622C42.8798 266.644 47.2268 272.351 52.5985 272.351C57.9703 272.351 62.3428 266.661 62.3428 259.639C62.3701 256.91 61.6684 254.223 60.3103 251.856C61.6426 249.48 62.3424 246.802 62.3424 244.078C62.3424 241.353 61.6426 238.675 60.3103 236.299C61.6426 233.923 62.3424 231.245 62.3424 228.521C62.3424 225.797 61.6426 223.118 60.3103 220.742L60.2847 220.725Z" fill="#3F3D56"/>
<path opacity="0.1" d="M52.5986 210.132C57.966 210.132 62.3173 204.433 62.3173 197.403C62.3173 190.373 57.966 184.674 52.5986 184.674C47.2311 184.674 42.8799 190.373 42.8799 197.403C42.8799 204.433 47.2311 210.132 52.5986 210.132Z" fill="#3F3D56"/>
<path opacity="0.1" d="M52.5986 194.575C57.966 194.575 62.3173 188.876 62.3173 181.846C62.3173 174.816 57.966 169.117 52.5986 169.117C47.2311 169.117 42.8799 174.816 42.8799 181.846C42.8799 188.876 47.2311 194.575 52.5986 194.575Z" fill="#3F3D56"/>
<path opacity="0.1" d="M16.2262 75.3748C14.8971 73.6839 13.6872 71.9027 12.6052 70.0439L38.1487 65.8493L10.5043 66.0971C7.86011 60.327 6.42056 54.078 6.27372 47.7323C6.12687 41.3866 7.27582 35.0776 9.65026 29.1913L46.7145 48.4216L12.5539 23.2881C15.7378 17.7198 20.0372 12.8693 25.1827 9.04089C30.3282 5.21245 36.2088 2.48852 42.4559 1.03986C48.703 -0.40879 55.1818 -0.550948 61.4864 0.622309C67.791 1.79557 73.7853 4.25894 79.0937 7.85802C84.402 11.4571 88.9099 16.1143 92.3348 21.5376C95.7597 26.961 98.0278 33.0336 98.9968 39.3748C99.9659 45.716 99.615 52.1891 97.9662 58.3883C96.3174 64.5876 93.4063 70.3793 89.4152 75.4004C91.4858 78.0318 93.2668 80.8788 94.7272 83.8921L61.5573 101.123L96.9135 89.2571C99.392 96.5985 100.003 104.442 98.6906 112.079C97.3785 119.716 94.1848 126.905 89.3981 132.997C94.8009 139.867 98.162 148.12 99.0971 156.81C100.032 165.501 98.5037 174.28 94.6863 182.143C90.8689 190.006 84.9166 196.635 77.5101 201.273C70.1036 205.912 61.5418 208.371 52.8036 208.371C44.0655 208.371 35.5037 205.912 28.0972 201.273C20.6907 196.635 14.7384 190.006 10.921 182.143C7.10352 174.28 5.575 165.501 6.51015 156.81C7.4453 148.12 10.8064 139.867 16.2091 132.997C9.75249 124.787 6.24219 114.645 6.24219 104.199C6.24219 93.7529 9.75249 83.6102 16.2091 75.4004L16.2262 75.3748Z" fill="#6C63FF"/>
<path opacity="0.1" d="M99.3645 104.173C99.3813 114.622 95.8693 124.77 89.3981 132.972C94.8008 139.842 98.1619 148.094 99.0971 156.785C100.032 165.476 98.5037 174.254 94.6862 182.117C90.8688 189.98 84.9165 196.61 77.51 201.248C70.1035 205.886 61.5417 208.346 52.8036 208.346C44.0654 208.346 35.5036 205.886 28.0971 201.248C20.6906 196.61 14.7383 189.98 10.9209 182.117C7.10348 174.254 5.57495 165.476 6.5101 156.785C7.44525 148.094 10.8063 139.842 16.2091 132.972C9.96621 125.044 99.3645 98.945 99.3645 104.173Z" fill="black"/>
</g>
<g opacity="0.1">
<path opacity="0.1" d="M146.412 286.524C150.426 286.524 153.68 282.266 153.68 277.015C153.68 271.764 150.426 267.507 146.412 267.507C142.398 267.507 139.145 271.764 139.145 277.015C139.145 282.266 142.398 286.524 146.412 286.524Z" fill="#3F3D56"/>
<path opacity="0.1" d="M152.16 236.325C153.17 234.557 153.692 232.552 153.671 230.516C153.671 225.262 150.426 220.999 146.412 220.999C142.398 220.999 139.144 225.27 139.144 230.516C139.127 232.553 139.651 234.558 140.665 236.325C139.668 238.1 139.145 240.102 139.145 242.138C139.145 244.175 139.668 246.176 140.665 247.952C139.668 249.727 139.145 251.729 139.145 253.765C139.145 255.802 139.668 257.803 140.665 259.579C139.651 261.346 139.127 263.351 139.144 265.388C139.144 270.642 142.398 274.905 146.412 274.905C150.426 274.905 153.671 270.634 153.671 265.388C153.692 263.352 153.17 261.347 152.16 259.579C153.148 257.801 153.667 255.8 153.667 253.765C153.667 251.731 153.148 249.73 152.16 247.952C153.148 246.174 153.667 244.173 153.667 242.138C153.667 240.104 153.148 238.103 152.16 236.325V236.325Z" fill="#3F3D56"/>
<path opacity="0.1" d="M146.412 228.397C150.426 228.397 153.68 224.14 153.68 218.888C153.68 213.637 150.426 209.38 146.412 209.38C142.398 209.38 139.145 213.637 139.145 218.888C139.145 224.14 142.398 228.397 146.412 228.397Z" fill="#3F3D56"/>
<path opacity="0.1" d="M146.412 216.77C150.426 216.77 153.68 212.513 153.68 207.262C153.68 202.01 150.426 197.753 146.412 197.753C142.398 197.753 139.145 202.01 139.145 207.262C139.145 212.513 142.398 216.77 146.412 216.77Z" fill="#3F3D56"/>
<path opacity="0.1" d="M119.22 127.701C118.226 126.439 117.321 125.108 116.513 123.72L135.6 120.584L114.959 120.738C112.979 116.427 111.898 111.757 111.784 107.014C111.669 102.271 112.523 97.5545 114.293 93.1528L141.988 107.531L116.445 88.736C118.834 84.5911 122.051 80.9833 125.896 78.1377C129.741 75.2921 134.131 73.2699 138.792 72.1972C143.453 71.1246 148.285 71.0245 152.987 71.9033C157.688 72.7821 162.158 74.6209 166.117 77.3049C170.077 79.9889 173.44 83.4605 175.999 87.503C178.557 91.5455 180.255 96.072 180.986 100.8C181.717 105.528 181.467 110.357 180.25 114.983C179.032 119.61 176.875 123.937 173.912 127.692C175.463 129.656 176.795 131.785 177.883 134.04L153.116 146.914L179.531 138.046C181.386 143.531 181.845 149.393 180.865 155.1C179.886 160.807 177.498 166.18 173.92 170.732C177.963 175.864 180.479 182.031 181.182 188.527C181.885 195.023 180.746 201.586 177.894 207.465C175.043 213.343 170.595 218.3 165.059 221.769C159.523 225.237 153.123 227.076 146.592 227.076C140.06 227.076 133.66 225.237 128.124 221.769C122.588 218.3 118.14 213.343 115.289 207.465C112.438 201.586 111.298 195.023 112.001 188.527C112.704 182.031 115.221 175.864 119.263 170.732C114.438 164.597 111.815 157.018 111.815 149.212C111.815 141.406 114.438 133.827 119.263 127.692L119.22 127.701Z" fill="#6C63FF"/>
<path opacity="0.1" d="M181.359 149.22C181.37 157.028 178.746 164.611 173.912 170.74C177.954 175.872 180.471 182.039 181.174 188.536C181.876 195.032 180.737 201.594 177.886 207.473C175.034 213.352 170.587 218.309 165.051 221.777C159.515 225.245 153.115 227.085 146.583 227.085C140.051 227.085 133.651 225.245 128.115 221.777C122.58 218.309 118.132 213.352 115.28 207.473C112.429 201.594 111.29 195.032 111.993 188.536C112.695 182.039 115.212 175.872 119.255 170.74C114.558 164.82 181.359 145.316 181.359 149.22Z" fill="black"/>
</g>
<path opacity="0.1" d="M468 428.85C726.469 428.85 936 425.461 936 421.281C936 417.1 726.469 413.711 468 413.711C209.531 413.711 0 417.1 0 421.281C0 425.461 209.531 428.85 468 428.85Z" fill="#6C63FF"/>
<path opacity="0.1" d="M468 491C726.469 491 936 487.611 936 483.431C936 479.251 726.469 475.862 468 475.862C209.531 475.862 0 479.251 0 483.431C0 487.611 209.531 491 468 491Z" fill="#6C63FF"/>
<path opacity="0.1" d="M468 299.141C726.469 299.141 936 295.753 936 291.572C936 287.392 726.469 284.003 468 284.003C209.531 284.003 0 287.392 0 291.572C0 295.753 209.531 299.141 468 299.141Z" fill="#6C63FF"/>
<path opacity="0.1" d="M468 363.991C726.469 363.991 936 360.602 936 356.422C936 352.242 726.469 348.853 468 348.853C209.531 348.853 0 352.242 0 356.422C0 360.602 209.531 363.991 468 363.991Z" fill="#6C63FF"/>
<path opacity="0.1" d="M690.719 94.289C687.67 93.7131 684.518 94.0581 681.666 95.28C679.954 96.0432 678.1 96.4376 676.226 96.4376C674.352 96.4376 672.498 96.0432 670.786 95.28C668.76 94.3906 666.565 93.952 664.354 93.9948C662.142 94.0376 659.966 94.5606 657.976 95.5278C656.842 96.1302 655.579 96.4469 654.295 96.4504C649.103 96.4504 644.79 91.2221 643.893 84.3279C644.915 83.5659 645.784 82.6182 646.455 81.5343C649.495 76.6306 654.201 73.4783 659.496 73.4783C664.791 73.4783 669.437 76.5879 672.477 81.4403C673.382 82.9064 674.652 84.1129 676.162 84.9423C677.672 85.7718 679.371 86.1958 681.094 86.1732H681.23C685.407 86.1304 688.985 89.4451 690.719 94.289Z" fill="#6C63FF"/>
<path opacity="0.1" d="M706.526 72.6326L698.14 77.9463L703.264 68.6857C701.821 67.5366 700.035 66.9023 698.191 66.8831H698.054C697.482 66.8909 696.911 66.848 696.346 66.755L693.46 68.5576L694.681 66.3364C692.663 65.6377 690.92 64.3153 689.702 62.5604L684.578 65.7896L687.789 59.9462C684.817 56.3752 680.803 54.1882 676.397 54.1882C671.102 54.1882 666.396 57.3321 663.347 62.2357C662.449 63.702 661.178 64.9043 659.665 65.7205C658.151 66.5367 656.449 66.9378 654.73 66.8831H654.448C648.607 66.8831 643.876 73.504 643.876 81.6711C643.876 89.8382 648.607 96.4675 654.448 96.4675C655.732 96.4589 656.994 96.1426 658.129 95.5449C660.118 94.5753 662.294 94.0502 664.506 94.0059C666.718 93.9617 668.913 94.3993 670.939 95.2886C672.65 96.0571 674.504 96.4544 676.38 96.4544C678.255 96.4544 680.109 96.0571 681.82 95.2886C683.83 94.4193 686.003 93.9915 688.192 94.0343C690.381 94.077 692.536 94.5892 694.51 95.5363C695.633 96.1243 696.881 96.4348 698.148 96.4419C703.99 96.4419 708.721 89.8125 708.721 81.6454C708.756 78.5046 708.002 75.4053 706.526 72.6326V72.6326Z" fill="#6C63FF"/>
<path opacity="0.1" d="M334.142 89.6674C332.005 89.2635 329.796 89.5044 327.796 90.3594C326.599 90.8944 325.303 91.171 323.992 91.171C322.681 91.171 321.384 90.8944 320.187 90.3594C318.77 89.7369 317.235 89.4306 315.688 89.4615C314.141 89.4925 312.619 89.8601 311.229 90.5387C310.437 90.9517 309.559 91.1712 308.667 91.1795C305.037 91.1795 302.014 87.5231 301.382 82.6963C302.106 82.1651 302.724 81.5012 303.201 80.74C305.327 77.3228 308.624 75.1016 312.33 75.1016C316.037 75.1016 319.291 77.28 321.417 80.6716C322.052 81.6982 322.942 82.5431 324 83.1239C325.058 83.7047 326.248 84.0018 327.455 83.9863H327.549C330.418 83.9692 332.921 86.2929 334.142 89.6674Z" fill="#6C63FF"/>
<path opacity="0.1" d="M345.201 74.5205L339.334 78.2453L342.896 71.7611C341.889 70.955 340.641 70.5098 339.351 70.4968H339.249C338.843 70.504 338.436 70.4726 338.036 70.4028L336.046 71.6672L336.9 70.1123C335.49 69.6215 334.27 68.6977 333.416 67.4725L329.855 69.7279L332.109 65.6443C331.162 64.4213 329.956 63.4242 328.576 62.7253C327.196 62.0264 325.679 61.6433 324.133 61.6035C320.426 61.6035 317.13 63.8076 315.003 67.2419C314.373 68.2687 313.483 69.1106 312.422 69.6822C311.362 70.2538 310.169 70.5348 308.965 70.4968H308.769C304.678 70.4968 301.365 75.1271 301.365 80.8509C301.365 86.5747 304.678 91.205 308.769 91.205C309.663 91.1981 310.542 90.9753 311.331 90.5557C312.722 89.8808 314.242 89.516 315.787 89.4865C317.333 89.457 318.866 89.7635 320.281 90.3848C321.486 90.9343 322.792 91.2253 324.116 91.2391C325.419 91.2369 326.707 90.9634 327.899 90.4361C329.305 89.8272 330.826 89.5274 332.358 89.5569C333.891 89.5864 335.399 89.9444 336.781 90.607C337.571 91.0213 338.45 91.2382 339.343 91.2391C343.425 91.2391 346.739 86.6003 346.739 80.885C346.773 78.6676 346.244 76.4776 345.201 74.5205V74.5205Z" fill="#6C63FF"/>
<path opacity="0.1" d="M230.234 156.653C232.368 156.25 234.574 156.49 236.57 157.345C237.769 157.88 239.067 158.157 240.379 158.157C241.692 158.157 242.99 157.88 244.188 157.345C245.605 156.723 247.14 156.417 248.686 156.446C250.233 156.476 251.755 156.841 253.147 157.516C253.936 157.936 254.815 158.159 255.709 158.165C259.339 158.165 262.362 154.5 262.985 149.673C262.261 149.144 261.647 148.479 261.175 147.717C259.04 144.3 255.743 142.087 252.045 142.087C248.347 142.087 245.085 144.257 242.95 147.657C242.316 148.682 241.427 149.526 240.371 150.107C239.314 150.688 238.126 150.986 236.921 150.972H236.827C233.949 150.989 231.438 153.304 230.234 156.653Z" fill="#6C63FF"/>
<path opacity="0.1" d="M219.166 141.532L225.041 145.256L221.472 138.781C222.481 137.972 223.731 137.524 225.024 137.508H225.118C225.527 137.514 225.936 137.485 226.34 137.423L228.329 138.678L227.475 137.132C228.883 136.64 230.099 135.716 230.951 134.492L234.512 136.748L232.292 132.656C233.239 131.434 234.447 130.438 235.826 129.74C237.206 129.043 238.723 128.661 240.269 128.623C243.966 128.623 247.271 130.827 249.398 134.262C250.027 135.287 250.917 136.128 251.975 136.7C253.034 137.271 254.225 137.553 255.427 137.517H255.632C259.714 137.517 263.028 142.155 263.028 147.871C263.028 153.586 259.714 158.225 255.632 158.225C254.739 158.221 253.86 158.001 253.07 157.584C251.679 156.905 250.158 156.538 248.611 156.507C247.064 156.476 245.528 156.782 244.112 157.405C242.912 157.959 241.607 158.25 240.286 158.259C238.98 158.258 237.688 157.984 236.494 157.456C235.089 156.847 233.569 156.547 232.039 156.577C230.508 156.606 229.001 156.964 227.621 157.627C226.83 158.041 225.951 158.258 225.059 158.259C220.968 158.259 217.654 153.629 217.654 147.905C217.614 145.687 218.134 143.495 219.166 141.532V141.532Z" fill="#6C63FF"/>
<path d="M567.33 418.829C569.559 414.694 567.031 409.636 564.128 405.954C561.224 402.272 557.671 398.437 557.748 393.746C557.859 387.006 565.016 383.016 570.729 379.445C574.972 376.784 578.885 373.63 582.387 370.048C583.851 368.669 585.062 367.044 585.965 365.247C587.152 362.616 587.118 359.609 587.041 356.704C586.796 347.085 586.321 337.471 585.615 327.863" stroke="#3F3D56" stroke-width="4" stroke-miterlimit="10"/>
<path d="M596.487 327.384C596.404 325.622 595.88 323.909 594.962 322.403C594.044 320.897 592.762 319.645 591.234 318.765L588.877 323.421L588.954 317.782C586.816 317.153 584.534 317.219 582.437 317.971C580.339 318.724 578.535 320.123 577.284 321.968C576.033 323.813 575.401 326.008 575.478 328.236C575.556 330.463 576.339 332.609 577.714 334.362C579.09 336.116 580.987 337.387 583.132 337.992C585.276 338.597 587.558 338.505 589.647 337.728C591.736 336.952 593.524 335.531 594.753 333.672C595.982 331.813 596.589 329.611 596.487 327.384V327.384Z" fill="#6C63FF"/>
<path d="M577.732 398.565C576.675 400.621 574.969 402.271 572.88 403.26C570.79 404.249 568.433 404.521 566.173 404.035C563.913 403.548 561.876 402.33 560.378 400.569C558.88 398.808 558.004 396.603 557.885 394.293C557.806 392.837 558.039 391.381 558.568 390.022C559.342 388.04 560.699 386.339 562.459 385.144C564.219 383.949 566.3 383.316 568.428 383.328C570.555 383.34 572.628 383.996 574.375 385.211C576.121 386.426 577.459 388.142 578.211 390.133L571.643 395.481L578.868 393.772C578.876 395.437 578.487 397.08 577.732 398.565V398.565Z" fill="#6C63FF"/>
<path d="M572.54 378.147C569.96 378.269 567.425 377.436 565.42 375.808C563.414 374.179 562.078 371.87 561.667 369.319C561.255 366.768 561.796 364.155 563.187 361.978C564.578 359.801 566.722 358.213 569.209 357.516L569.149 361.847L571.532 357.131C574.318 357.001 577.042 357.983 579.104 359.862C581.166 361.74 582.397 364.361 582.527 367.148C582.658 369.935 581.676 372.659 579.798 374.722C577.92 376.785 575.3 378.017 572.514 378.147H572.54Z" fill="#6C63FF"/>
<path d="M598.066 361.155C596.436 361.239 594.809 360.943 593.314 360.289C591.818 359.635 590.495 358.642 589.45 357.388C588.405 356.134 587.666 354.654 587.291 353.065C586.917 351.476 586.918 349.821 587.293 348.232C587.669 346.643 588.409 345.164 589.456 343.911C590.502 342.658 591.826 341.665 593.322 341.013C594.818 340.36 596.445 340.065 598.075 340.151C599.705 340.236 601.293 340.7 602.712 341.506L600.859 346.632L604.642 342.89C606.172 344.294 607.253 346.119 607.748 348.136C608.243 350.152 608.129 352.27 607.422 354.223C606.715 356.176 605.446 357.875 603.775 359.107C602.104 360.339 600.106 361.049 598.032 361.147L598.066 361.155Z" fill="#6C63FF"/>
<path opacity="0.1" d="M595.069 330.187C592.643 330.451 590.286 331.203 587.844 331.357C585.401 331.511 582.72 330.921 581.2 329.033C580.485 327.933 579.834 326.792 579.252 325.616C578.589 324.579 577.679 323.723 576.605 323.122C575.925 324.454 575.537 325.917 575.467 327.412C575.397 328.907 575.647 330.399 576.2 331.79C576.753 333.18 577.596 334.437 578.673 335.475C579.75 336.513 581.036 337.31 582.446 337.811C583.855 338.313 585.355 338.508 586.846 338.383C588.337 338.258 589.784 337.816 591.09 337.087C592.396 336.358 593.532 335.359 594.422 334.155C595.311 332.952 595.933 331.573 596.247 330.11C595.863 330.118 595.462 330.144 595.069 330.187Z" fill="black"/>
<path opacity="0.1" d="M598.066 361.155C596.254 361.241 594.45 360.856 592.83 360.038C591.21 359.219 589.829 357.995 588.823 356.485C587.816 354.975 587.217 353.229 587.084 351.419C586.952 349.608 587.29 347.795 588.066 346.154C588.899 346.717 589.616 347.436 590.175 348.272C590.803 349.47 591.499 350.631 592.259 351.749C593.899 353.671 596.7 354.312 599.236 354.184C601.773 354.056 604.224 353.33 606.752 353.116C607.102 353.116 607.452 353.065 607.811 353.056C607.288 355.282 606.053 357.277 604.295 358.739C602.537 360.2 600.35 361.049 598.066 361.155V361.155Z" fill="black"/>
<path opacity="0.1" d="M572.54 378.147C570.746 378.231 568.96 377.854 567.353 377.052C565.746 376.25 564.372 375.049 563.36 373.564C562.349 372.08 561.735 370.361 561.576 368.571C561.417 366.782 561.72 364.982 562.454 363.342C563.32 363.913 564.076 364.636 564.683 365.478C565.372 366.704 566.133 367.888 566.963 369.023C568.731 370.997 571.72 371.697 574.402 371.586C577.083 371.475 579.526 370.894 582.088 370.732C581.45 372.799 580.192 374.62 578.483 375.946C576.775 377.273 574.7 378.041 572.54 378.147Z" fill="black"/>
<path opacity="0.1" d="M577.732 398.565C576.675 400.621 574.969 402.271 572.88 403.26C570.79 404.249 568.433 404.521 566.173 404.035C563.913 403.548 561.876 402.33 560.378 400.569C558.88 398.808 558.004 396.603 557.885 394.293C557.806 392.837 558.039 391.381 558.568 390.022C559.434 390.59 560.211 391.284 560.874 392.081C561.873 393.294 562.531 394.644 563.692 395.814C565.836 397.924 569.312 398.795 572.395 398.872C574.179 398.878 575.961 398.775 577.732 398.565V398.565Z" fill="black"/>
<path d="M46.3816 357.319C48.6106 353.184 46.0827 348.127 43.1791 344.445C40.2754 340.763 36.7227 336.91 36.7996 332.237C36.9106 325.497 44.0672 321.507 49.7806 317.936C54.0234 315.275 57.9364 312.12 61.4379 308.539C62.9022 307.16 64.1133 305.535 65.0162 303.738C66.2033 301.106 66.1691 298.099 66.0923 295.195C65.8417 285.575 65.3663 275.962 64.6661 266.354" stroke="#3F3D56" stroke-width="4" stroke-miterlimit="10"/>
<path d="M75.5376 265.875C75.4551 264.113 74.9308 262.4 74.013 260.893C73.0952 259.387 71.8133 258.136 70.2854 257.255L67.9283 261.911L68.0052 256.273C65.8675 255.643 63.5852 255.709 61.4876 256.462C59.3899 257.214 57.5856 258.614 56.3349 260.459C55.0842 262.303 54.4519 264.498 54.5293 266.726C54.6066 268.954 55.3896 271.099 56.7653 272.853C58.1409 274.607 60.038 275.878 62.1828 276.483C64.3275 277.088 66.6089 276.995 68.6978 276.219C70.7866 275.442 72.5747 274.022 73.8041 272.163C75.0335 270.304 75.6405 268.102 75.5376 265.875Z" fill="#6C63FF"/>
<path d="M56.7833 337.055C55.7258 339.111 54.0202 340.762 51.9306 341.75C49.841 342.739 47.4838 343.011 45.2239 342.525C42.964 342.039 40.9273 340.821 39.4291 339.06C37.9309 337.299 37.0547 335.093 36.936 332.784C36.8575 331.327 37.0904 329.871 37.6193 328.512C38.3935 326.53 39.7501 324.829 41.5103 323.634C43.2704 322.439 45.3513 321.806 47.4786 321.818C49.6058 321.83 51.6794 322.487 53.4259 323.702C55.1724 324.917 56.5098 326.633 57.2616 328.623L50.6942 333.971L57.9192 332.263C57.9275 333.928 57.538 335.571 56.7833 337.055V337.055Z" fill="#6C63FF"/>
<path d="M51.5911 316.638C49.0111 316.759 46.4767 315.926 44.4712 314.298C42.4658 312.67 41.1298 310.36 40.718 307.809C40.3062 305.259 40.8475 302.646 42.2386 300.469C43.6298 298.292 45.7734 296.703 48.2605 296.006L48.2007 300.338L50.5834 295.622C51.9628 295.557 53.3415 295.765 54.6406 296.234C55.9397 296.702 57.1339 297.422 58.1549 298.352C59.176 299.282 60.0038 300.404 60.5913 301.655C61.1788 302.905 61.5143 304.259 61.5788 305.638C61.6433 307.018 61.4355 308.397 60.9672 309.697C60.4988 310.997 59.7792 312.191 58.8494 313.213C57.9196 314.234 56.7978 315.062 55.548 315.65C54.2982 316.237 52.945 316.573 51.5655 316.638H51.5911Z" fill="#6C63FF"/>
<path d="M77.1175 299.646C75.4875 299.73 73.8603 299.433 72.3647 298.779C70.8692 298.126 69.5463 297.132 68.501 295.878C67.4557 294.624 66.7166 293.144 66.3423 291.555C65.9679 289.966 65.9686 288.311 66.3443 286.723C66.72 285.134 67.4603 283.654 68.5067 282.401C69.553 281.148 70.8767 280.156 72.3728 279.503C73.8689 278.851 75.4963 278.556 77.1263 278.641C78.7562 278.727 80.3438 279.191 81.7633 279.997L79.9101 285.122L83.6934 281.381C85.2236 282.784 86.3041 284.609 86.7989 286.626C87.2936 288.643 87.1804 290.761 86.4734 292.714C85.7665 294.666 84.4974 296.365 82.8264 297.598C81.1553 298.83 79.157 299.539 77.0833 299.637L77.1175 299.646Z" fill="#6C63FF"/>
<path opacity="0.1" d="M74.1201 268.677C71.6947 268.942 69.3376 269.694 66.8951 269.848C64.4526 270.001 61.771 269.412 60.2509 267.524C59.5359 266.424 58.8858 265.283 58.3037 264.107C57.6398 263.07 56.7305 262.213 55.6563 261.612C54.9761 262.945 54.5882 264.408 54.5183 265.902C54.4484 267.397 54.6983 268.89 55.2511 270.28C55.804 271.671 56.6471 272.927 57.7242 273.965C58.8013 275.004 60.0875 275.801 61.497 276.302C62.9064 276.803 64.4066 276.998 65.8973 276.873C67.388 276.748 68.8349 276.307 70.1413 275.578C71.4477 274.849 72.5835 273.849 73.4729 272.646C74.3623 271.443 74.9847 270.063 75.2986 268.6C74.9143 268.609 74.5129 268.634 74.1201 268.677Z" fill="black"/>
<path opacity="0.1" d="M77.1175 299.646C75.3049 299.731 73.5008 299.346 71.881 298.528C70.2611 297.71 68.8807 296.486 67.8738 294.975C66.867 293.465 66.2682 291.72 66.1355 289.909C66.0029 288.099 66.341 286.285 67.117 284.644C67.9504 285.207 68.6668 285.927 69.2264 286.763C69.8545 287.96 70.5502 289.121 71.3102 290.24C72.9499 292.162 75.7511 292.803 78.2875 292.674C80.824 292.546 83.275 291.82 85.8029 291.607C86.153 291.607 86.5032 291.555 86.8618 291.547C86.3388 293.773 85.1045 295.768 83.3462 297.229C81.5878 298.691 79.4011 299.539 77.1175 299.646Z" fill="black"/>
<path opacity="0.1" d="M51.5909 316.638C49.7969 316.722 48.0113 316.345 46.4044 315.542C44.7975 314.74 43.4228 313.539 42.4114 312.055C41.4001 310.57 40.7857 308.851 40.6271 307.062C40.4684 305.272 40.7706 303.472 41.505 301.833C42.3715 302.403 43.1268 303.127 43.7339 303.968C44.4226 305.195 45.184 306.378 46.0142 307.514C47.782 309.487 50.771 310.188 53.4526 310.077C56.1342 309.965 58.5767 309.385 61.1387 309.222C60.5011 311.289 59.2427 313.11 57.5344 314.437C55.8262 315.764 53.751 316.532 51.5909 316.638Z" fill="black"/>
<path opacity="0.1" d="M56.7833 337.055C55.7258 339.111 54.0202 340.762 51.9306 341.75C49.841 342.739 47.4838 343.012 45.2239 342.525C42.964 342.039 40.9273 340.821 39.4291 339.06C37.9309 337.299 37.0547 335.093 36.936 332.784C36.8575 331.327 37.0904 329.871 37.6193 328.512C38.4852 329.081 39.2623 329.775 39.9251 330.571C40.9243 331.784 41.5819 333.134 42.7433 334.304C44.8869 336.415 48.3628 337.286 51.4457 337.363C53.2295 337.368 55.012 337.265 56.7833 337.055V337.055Z" fill="black"/>
<path d="M393.291 286.951C391.062 282.824 393.59 277.767 396.502 274.085C399.414 270.403 402.95 266.567 402.873 261.877C402.77 255.128 395.614 251.147 389.892 247.576C385.651 244.916 381.74 241.762 378.243 238.179C376.772 236.807 375.557 235.184 374.656 233.386C373.478 230.746 373.512 227.748 373.58 224.843C373.836 215.224 374.312 205.61 375.006 196.002" stroke="#3F3D56" stroke-width="4" stroke-miterlimit="10"/>
<path d="M364.143 195.515C364.224 193.753 364.747 192.041 365.663 190.534C366.579 189.028 367.86 187.776 369.387 186.895L371.744 191.551L371.676 185.913C372.798 185.586 373.966 185.445 375.134 185.494C377.211 185.591 379.213 186.302 380.886 187.536C382.559 188.771 383.828 190.474 384.534 192.43C385.24 194.386 385.349 196.508 384.85 198.527C384.35 200.545 383.263 202.371 381.727 203.772C380.19 205.173 378.273 206.086 376.217 206.397C374.161 206.708 372.06 206.403 370.178 205.519C368.296 204.635 366.718 203.213 365.644 201.432C364.57 199.652 364.048 197.593 364.143 195.515V195.515Z" fill="#6C63FF"/>
<path d="M382.889 266.695C383.991 268.842 385.797 270.543 388.005 271.515C390.213 272.488 392.687 272.671 395.014 272.034C397.34 271.398 399.377 269.98 400.783 268.019C402.189 266.059 402.878 263.674 402.735 261.265C402.591 258.857 401.624 256.571 399.996 254.791C398.367 253.011 396.177 251.845 393.791 251.489C391.405 251.133 388.97 251.608 386.893 252.836C384.816 254.063 383.225 255.967 382.385 258.229L388.952 263.577L381.727 261.868C381.722 263.547 382.12 265.203 382.889 266.695V266.695Z" fill="#6C63FF"/>
<path d="M388.081 246.277C390.662 246.402 393.198 245.571 395.206 243.943C397.213 242.316 398.551 240.006 398.964 237.454C399.377 234.902 398.836 232.288 397.445 230.11C396.053 227.932 393.909 226.343 391.421 225.646L391.472 229.977L389.089 225.262C386.304 225.125 383.579 226.1 381.513 227.973C379.447 229.846 378.209 232.463 378.072 235.248C378.012 236.462 378.165 237.676 378.525 238.837C379.155 240.912 380.412 242.741 382.123 244.073C383.834 245.405 385.915 246.175 388.081 246.277V246.277Z" fill="#6C63FF"/>
<path d="M362.563 229.268C364.193 229.351 365.82 229.054 367.315 228.399C368.81 227.744 370.132 226.75 371.176 225.496C372.22 224.242 372.959 222.761 373.332 221.172C373.706 219.583 373.704 217.929 373.328 216.341C372.952 214.752 372.211 213.273 371.164 212.021C370.118 210.768 368.794 209.777 367.298 209.125C365.802 208.473 364.175 208.178 362.545 208.264C360.916 208.349 359.328 208.814 357.909 209.619L359.771 214.745L355.945 211.08C354.924 212.005 354.097 213.123 353.511 214.369C352.924 215.616 352.591 216.966 352.529 218.342C352.478 219.315 352.567 220.29 352.793 221.238C353.329 223.456 354.573 225.44 356.335 226.888C358.098 228.337 360.284 229.173 362.563 229.268Z" fill="#6C63FF"/>
<path opacity="0.1" d="M365.561 198.317C367.986 198.582 370.343 199.334 372.777 199.487C375.211 199.641 377.901 199.052 379.43 197.164C380.142 196.063 380.79 194.922 381.369 193.747C382.036 192.709 382.948 191.853 384.025 191.252C384.706 192.585 385.095 194.049 385.166 195.544C385.236 197.04 384.986 198.533 384.433 199.925C383.88 201.316 383.037 202.573 381.959 203.612C380.881 204.651 379.594 205.448 378.183 205.949C376.773 206.451 375.272 206.645 373.78 206.519C372.288 206.393 370.841 205.95 369.534 205.219C368.228 204.488 367.092 203.487 366.204 202.282C365.315 201.077 364.694 199.696 364.382 198.232C364.767 198.24 365.159 198.274 365.561 198.317Z" fill="black"/>
<path opacity="0.1" d="M362.563 229.268C364.375 229.352 366.178 228.965 367.796 228.146C369.415 227.327 370.794 226.103 371.8 224.594C372.807 223.084 373.406 221.34 373.54 219.531C373.673 217.721 373.337 215.908 372.564 214.267C371.728 214.83 371.009 215.549 370.446 216.386C369.818 217.583 369.122 218.744 368.362 219.862C366.731 221.785 363.93 222.425 361.393 222.297C358.857 222.169 356.406 221.443 353.878 221.229C353.528 221.229 353.169 221.178 352.819 221.17C353.341 223.396 354.575 225.392 356.333 226.854C358.092 228.315 360.279 229.163 362.563 229.268V229.268Z" fill="black"/>
<path opacity="0.1" d="M388.081 246.277C389.876 246.364 391.663 245.988 393.271 245.187C394.88 244.385 396.255 243.185 397.267 241.699C398.279 240.214 398.893 238.494 399.051 236.703C399.208 234.913 398.904 233.112 398.167 231.472C397.302 232.041 396.549 232.765 395.947 233.608C395.258 234.834 394.497 236.018 393.667 237.154C391.89 239.127 388.91 239.827 386.22 239.716C383.529 239.605 381.095 239.024 378.533 238.862C379.168 240.931 380.425 242.754 382.134 244.081C383.843 245.408 385.92 246.175 388.081 246.277V246.277Z" fill="black"/>
<path opacity="0.1" d="M382.889 266.695C384.123 269.075 386.219 270.893 388.749 271.779C391.278 272.664 394.05 272.55 396.499 271.459C398.947 270.368 400.886 268.383 401.92 265.91C402.954 263.437 403.005 260.662 402.062 258.152C401.192 258.716 400.414 259.41 399.756 260.211C398.757 261.424 398.048 262.774 396.937 263.944C394.785 266.054 391.318 266.926 388.227 267.003C386.443 267.004 384.661 266.901 382.889 266.695V266.695Z" fill="black"/>
<path d="M665.901 288.873C713.048 288.873 751.268 250.64 751.268 203.477C751.268 156.314 713.048 118.081 665.901 118.081C618.754 118.081 580.533 156.314 580.533 203.477C580.533 250.64 618.754 288.873 665.901 288.873Z" fill="#3F3D56"/>
<path d="M702.546 225.501C699.575 222.528 692.426 218.043 688.882 216.368C684.792 214.403 683.288 214.438 680.393 216.531C677.985 218.239 676.422 219.888 673.655 219.282C670.888 218.675 665.405 214.54 660.102 209.252C654.799 203.964 650.682 198.514 650.093 195.703C649.504 192.892 651.126 191.363 652.851 188.954C654.935 186.058 654.995 184.554 653.014 180.462C651.306 176.917 646.873 169.783 643.876 166.793C640.878 163.803 640.229 164.461 638.589 165.085C636.902 165.792 635.281 166.65 633.747 167.648C630.775 169.638 629.11 171.296 627.94 173.79C626.77 176.285 625.446 180.915 632.253 193.037C637.274 202.311 643.633 210.794 651.126 218.214V218.214C658.568 225.726 667.078 232.1 676.379 237.128C688.489 243.962 693.127 242.604 695.62 241.442C698.114 240.28 699.771 238.631 701.752 235.633C702.751 234.099 703.609 232.478 704.314 230.789C704.878 229.149 705.544 228.482 702.546 225.501Z" fill="#6C63FF"/>
<path opacity="0.1" d="M665.901 118.09C649.006 118.081 632.489 123.086 618.438 132.47C604.387 141.854 593.435 155.195 586.966 170.807C580.496 186.419 578.802 203.6 582.095 220.176C585.389 236.752 593.524 251.978 605.47 263.928C617.416 275.878 632.637 284.015 649.207 287.31C665.778 290.605 682.953 288.91 698.559 282.439C714.166 275.967 727.504 265.011 736.884 250.956C746.265 236.9 751.268 220.377 751.259 203.477C751.248 180.834 742.251 159.122 726.246 143.112C710.241 127.101 688.536 118.101 665.901 118.09V118.09ZM665.901 277.519C651.261 277.519 636.951 273.177 624.779 265.041C612.607 256.905 603.12 245.341 597.518 231.812C591.915 218.282 590.45 203.395 593.306 189.032C596.161 174.669 603.211 161.476 613.562 151.121C623.914 140.766 637.103 133.715 651.461 130.858C665.819 128.001 680.701 129.467 694.226 135.071C707.751 140.675 719.311 150.165 727.444 162.341C735.577 174.518 739.918 188.833 739.918 203.477C739.918 213.2 738.004 222.829 734.284 231.812C730.564 240.795 725.112 248.957 718.239 255.833C711.366 262.708 703.206 268.162 694.226 271.883C685.246 275.604 675.621 277.519 665.901 277.519Z" fill="black"/>
<path d="M469.776 418.581C516.923 418.581 555.144 380.348 555.144 333.185C555.144 286.023 516.923 247.79 469.776 247.79C422.629 247.79 384.409 286.023 384.409 333.185C384.409 380.348 422.629 418.581 469.776 418.581Z" fill="#3F3D56"/>
<path d="M518.327 307.385L492.766 333.399C492.722 333.442 492.686 333.494 492.661 333.551C492.637 333.608 492.624 333.67 492.624 333.732C492.624 333.794 492.637 333.856 492.661 333.913C492.686 333.97 492.722 334.022 492.766 334.065L510.701 353.142C511.13 353.574 511.422 354.124 511.54 354.721C511.657 355.319 511.596 355.938 511.364 356.501C511.131 357.064 510.737 357.546 510.232 357.886C509.727 358.226 509.132 358.409 508.523 358.413C507.703 358.411 506.918 358.085 506.337 357.507L488.496 338.499C488.405 338.409 488.283 338.359 488.155 338.359C488.027 338.359 487.904 338.409 487.813 338.499L483.466 342.89C481.686 344.711 479.561 346.157 477.214 347.145C474.868 348.132 472.348 348.64 469.802 348.639C467.208 348.627 464.643 348.098 462.255 347.083C459.868 346.068 457.707 344.588 455.899 342.728L451.722 338.456C451.631 338.367 451.509 338.316 451.381 338.316C451.253 338.316 451.13 338.367 451.039 338.456L433.242 357.422C432.955 357.709 432.615 357.936 432.241 358.092C431.866 358.247 431.465 358.327 431.06 358.327C430.654 358.327 430.253 358.247 429.878 358.092C429.504 357.936 429.164 357.709 428.878 357.422C428.59 357.136 428.361 356.796 428.205 356.421C428.049 356.047 427.969 355.645 427.969 355.239C427.969 354.833 428.049 354.431 428.205 354.057C428.361 353.682 428.59 353.342 428.878 353.056L446.744 334.022C446.823 333.93 446.867 333.811 446.867 333.689C446.867 333.567 446.823 333.449 446.744 333.356L421.183 307.343C421.117 307.277 421.033 307.232 420.942 307.213C420.851 307.195 420.756 307.204 420.67 307.24C420.584 307.276 420.51 307.336 420.459 307.414C420.407 307.491 420.38 307.583 420.38 307.676V359.728C420.387 361.741 421.189 363.668 422.611 365.091C424.034 366.514 425.961 367.316 427.972 367.323H511.555C513.566 367.316 515.494 366.514 516.916 365.091C518.338 363.668 519.14 361.741 519.147 359.728V307.719C519.151 307.622 519.125 307.526 519.073 307.444C519.021 307.363 518.944 307.299 518.855 307.263C518.765 307.226 518.666 307.218 518.571 307.24C518.477 307.262 518.392 307.313 518.327 307.385V307.385Z" fill="#6C63FF"/>
<path d="M469.776 342.463C471.509 342.48 473.228 342.149 474.83 341.488C476.432 340.828 477.885 339.852 479.102 338.619L516.329 300.713C515.007 299.618 513.348 299.015 511.632 299.005H427.99C426.273 299.01 424.612 299.615 423.292 300.713L460.527 338.619C461.734 339.845 463.175 340.817 464.763 341.477C466.352 342.137 468.056 342.473 469.776 342.463V342.463Z" fill="#6C63FF"/>
<path opacity="0.1" d="M468.7 247.798C451.806 247.79 435.288 252.794 421.238 262.178C407.187 271.562 396.234 284.904 389.765 300.516C383.296 316.128 381.601 333.308 384.895 349.884C388.189 366.46 396.323 381.686 408.27 393.636C420.216 405.586 435.437 413.724 452.007 417.019C468.577 420.313 485.752 418.618 501.359 412.147C516.966 405.676 530.303 394.719 539.684 380.664C549.065 366.608 554.067 350.085 554.059 333.185C554.048 310.543 545.051 288.831 529.046 272.82C513.04 256.809 491.335 247.809 468.7 247.798ZM468.7 407.227C454.061 407.227 439.75 402.885 427.578 394.749C415.406 386.613 405.919 375.049 400.317 361.52C394.715 347.991 393.249 333.103 396.105 318.74C398.961 304.378 406.011 291.185 416.362 280.83C426.714 270.475 439.902 263.423 454.26 260.566C468.618 257.709 483.501 259.175 497.026 264.779C510.55 270.383 522.11 279.874 530.244 292.05C538.377 304.226 542.718 318.541 542.718 333.185C542.718 352.823 534.919 371.655 521.038 385.541C507.158 399.427 488.331 407.227 468.7 407.227Z" fill="black"/>
<path d="M267.179 354.808C314.326 354.808 352.546 316.575 352.546 269.412C352.546 222.249 314.326 184.016 267.179 184.016C220.032 184.016 181.811 222.249 181.811 269.412C181.811 316.575 220.032 354.808 267.179 354.808Z" fill="#3F3D56"/>
<path d="M267.178 228.551L233.146 307.095L236.323 310.273L267.187 296.656L298.051 310.273L301.228 307.095L267.178 228.551Z" fill="#6C63FF"/>
<path opacity="0.1" d="M267.178 183.99C250.286 183.982 233.77 188.985 219.72 198.367C205.67 207.749 194.718 221.089 188.247 236.698C181.777 252.308 180.08 269.486 183.37 286.061C186.66 302.635 194.791 317.861 206.733 329.813C218.674 341.765 233.892 349.906 250.459 353.206C267.026 356.505 284.2 354.816 299.808 348.351C315.415 341.887 328.755 330.937 338.141 316.887C347.527 302.837 352.537 286.319 352.537 269.42C352.537 246.77 343.545 225.047 327.539 209.027C311.532 193.007 289.821 184.002 267.178 183.99V183.99ZM267.178 343.42C252.537 343.42 238.225 339.076 226.052 330.938C213.879 322.801 204.392 311.234 198.791 297.702C193.19 284.171 191.727 269.281 194.586 254.917C197.446 240.553 204.499 227.36 214.855 217.007C225.211 206.654 238.404 199.605 252.764 196.753C267.125 193.901 282.009 195.373 295.533 200.984C309.057 206.595 320.614 216.091 328.742 228.273C336.87 240.455 341.204 254.774 341.196 269.42C341.194 289.056 333.394 307.887 319.514 321.771C305.633 335.654 286.808 343.454 267.178 343.454V343.42Z" fill="black"/>
<g opacity="0.1">
<path opacity="0.1" d="M651.229 416.582C651.229 416.582 642.74 416.351 640.178 415.89C640.178 416.326 640.178 416.582 640.178 416.582C639.512 417.248 651.929 417.59 651.929 417.59C652.098 417.605 652.259 417.671 652.39 417.778C651.938 416.582 651.229 416.582 651.229 416.582Z" fill="black"/>
<path opacity="0.1" d="M666.003 402.811C665.662 402.477 665.329 397.779 665.329 397.779C665.155 397.887 664.96 397.957 664.757 397.984C664.876 399.402 665.107 401.58 665.329 401.803C665.551 402.025 667.037 410.533 666.67 414.566C666.302 418.598 666.67 418.589 666.67 418.589C666.67 418.589 655.781 420.187 653.142 419.119C653.142 419.264 653.219 419.427 653.245 419.598C653.578 421.614 667.344 419.598 667.344 419.598C667.344 419.598 667.003 419.598 667.344 415.574C667.686 411.55 666.336 403.152 666.003 402.811Z" fill="black"/>
</g>
<g opacity="0.1">
<path opacity="0.1" d="M649.222 397.779H649.034C649.759 397.92 650.504 397.92 651.229 397.779H651.442C650.706 397.671 649.958 397.671 649.222 397.779Z" fill="black"/>
<path opacity="0.1" d="M666.84 379.48C665.636 382.188 663.86 396.856 663.544 399.769C664.722 400.077 665.499 400.299 665.499 400.299C665.499 400.299 667.344 383.042 668.693 379.984L666.84 379.48Z" fill="black"/>
</g>
<path d="M714.289 353.996C716.518 349.87 713.99 344.804 711.078 341.122C708.166 337.44 704.63 333.612 704.707 328.914C704.81 322.173 711.966 318.192 717.688 314.613C721.93 311.954 725.84 308.799 729.337 305.216C730.806 303.843 732.021 302.22 732.924 300.423C734.102 297.783 734.068 294.785 734 291.88C733.749 282.255 733.274 272.641 732.574 263.039" stroke="#3F3D56" stroke-width="4" stroke-miterlimit="10"/>
<path d="M743.437 262.526C743.355 260.766 742.832 259.054 741.916 257.55C740.999 256.045 739.719 254.795 738.193 253.915L735.836 258.571L735.904 252.932C734.783 252.598 733.614 252.456 732.445 252.514C730.368 252.611 728.367 253.322 726.693 254.557C725.02 255.792 723.751 257.495 723.046 259.452C722.34 261.409 722.231 263.531 722.731 265.55C723.232 267.569 724.319 269.394 725.857 270.794C727.394 272.195 729.312 273.108 731.369 273.418C733.425 273.728 735.527 273.421 737.408 272.536C739.29 271.651 740.867 270.227 741.94 268.446C743.013 266.664 743.534 264.604 743.437 262.526V262.526Z" fill="#6C63FF"/>
<path d="M724.691 333.715C723.588 335.86 721.782 337.561 719.574 338.533C717.367 339.504 714.892 339.687 712.566 339.05C710.24 338.413 708.204 336.995 706.798 335.035C705.393 333.074 704.704 330.69 704.847 328.282C704.99 325.874 705.957 323.588 707.585 321.808C709.213 320.028 711.403 318.862 713.788 318.505C716.173 318.149 718.608 318.623 720.685 319.85C722.762 321.076 724.354 322.979 725.195 325.24L718.628 330.588L725.853 328.88C725.86 330.561 725.461 332.22 724.691 333.715V333.715Z" fill="#6C63FF"/>
<path d="M719.499 313.289C716.918 313.413 714.382 312.582 712.374 310.954C710.367 309.327 709.029 307.017 708.616 304.465C708.203 301.914 708.744 299.299 710.135 297.121C711.527 294.943 713.671 293.354 716.16 292.657L716.108 296.989L718.491 292.282C721.277 292.154 723.999 293.138 726.06 295.017C728.121 296.896 729.352 299.516 729.482 302.302C729.548 303.682 729.341 305.061 728.873 306.36C728.405 307.66 727.686 308.854 726.756 309.876C725.827 310.897 724.705 311.724 723.455 312.312C722.206 312.899 720.852 313.234 719.473 313.297L719.499 313.289Z" fill="#6C63FF"/>
<path d="M745.017 296.305C743.387 296.388 741.76 296.091 740.266 295.436C738.771 294.781 737.449 293.787 736.404 292.533C735.36 291.279 734.622 289.798 734.248 288.209C733.875 286.62 733.876 284.966 734.253 283.378C734.629 281.789 735.37 280.31 736.416 279.058C737.463 277.805 738.786 276.814 740.282 276.162C741.778 275.509 743.406 275.215 745.035 275.3C746.665 275.386 748.252 275.851 749.671 276.656L747.809 281.782L751.635 278.109C752.655 279.034 753.481 280.152 754.068 281.398C754.654 282.645 754.988 283.994 755.051 285.37C755.103 286.343 755.014 287.319 754.787 288.266C754.251 290.485 753.008 292.47 751.246 293.92C749.483 295.37 747.297 296.208 745.017 296.305V296.305Z" fill="#6C63FF"/>
<path opacity="0.1" d="M742.028 265.328C739.602 265.602 737.237 266.353 734.803 266.507C732.369 266.661 729.678 266.071 728.15 264.175C727.436 263.076 726.788 261.935 726.211 260.758C725.545 259.723 724.636 258.867 723.564 258.263C722.882 259.596 722.493 261.06 722.423 262.555C722.352 264.051 722.602 265.545 723.155 266.936C723.708 268.327 724.552 269.585 725.629 270.624C726.707 271.663 727.995 272.459 729.405 272.961C730.816 273.462 732.317 273.656 733.808 273.53C735.3 273.404 736.747 272.961 738.054 272.23C739.361 271.5 740.496 270.498 741.385 269.293C742.273 268.088 742.894 266.707 743.206 265.243C742.813 265.26 742.42 265.286 742.028 265.328Z" fill="black"/>
<path opacity="0.1" d="M745.017 296.305C743.205 296.389 741.402 296.002 739.784 295.183C738.165 294.364 736.786 293.14 735.78 291.631C734.774 290.121 734.174 288.377 734.041 286.568C733.907 284.758 734.243 282.945 735.016 281.304C735.852 281.864 736.571 282.58 737.134 283.414C737.759 284.614 738.454 285.775 739.218 286.891C740.849 288.822 743.65 289.454 746.187 289.334C748.723 289.215 751.174 288.48 753.702 288.266C754.052 288.266 754.411 288.206 754.761 288.198C754.24 290.426 753.006 292.423 751.248 293.886C749.489 295.349 747.302 296.198 745.017 296.305V296.305Z" fill="black"/>
<path opacity="0.1" d="M719.499 313.289C717.702 313.377 715.912 313.001 714.302 312.199C712.691 311.397 711.314 310.194 710.302 308.706C709.289 307.218 708.676 305.495 708.52 303.702C708.365 301.91 708.672 300.107 709.413 298.467C710.274 299.04 711.027 299.763 711.633 300.602C712.487 301.756 712.957 303.088 713.913 304.148C715.69 306.13 718.67 306.822 721.36 306.762C724.051 306.702 726.484 306.061 729.047 305.865C728.413 307.935 727.155 309.759 725.446 311.088C723.738 312.416 721.661 313.185 719.499 313.289V313.289Z" fill="black"/>
<path opacity="0.1" d="M724.691 333.715C723.437 336.061 721.342 337.846 718.826 338.709C716.31 339.572 713.561 339.45 711.131 338.368C708.701 337.285 706.772 335.322 705.73 332.874C704.689 330.426 704.613 327.674 705.519 325.172C706.386 325.738 707.164 326.432 707.824 327.231C708.832 328.452 709.49 329.794 710.643 330.973C712.795 333.083 716.262 333.946 719.354 334.031C721.137 334.029 722.92 333.924 724.691 333.715V333.715Z" fill="black"/>
<path d="M850.078 483.85C852.307 479.723 849.779 474.657 846.867 470.975C843.954 467.293 840.419 463.466 840.496 458.767C840.598 452.027 847.755 448.046 853.477 444.466C857.718 441.807 861.629 438.653 865.125 435.069C866.595 433.696 867.809 432.073 868.712 430.276C869.891 427.637 869.857 424.638 869.788 421.733C869.543 412.108 869.068 402.495 868.362 392.892" stroke="#3F3D56" stroke-width="4" stroke-miterlimit="10"/>
<path d="M879.225 392.38C879.144 390.619 878.621 388.908 877.704 387.403C876.788 385.898 875.508 384.648 873.981 383.768L871.624 388.424L871.693 382.786C870.585 382.456 869.431 382.314 868.277 382.367C866.199 382.464 864.198 383.175 862.525 384.41C860.851 385.645 859.582 387.349 858.877 389.305C858.171 391.262 858.062 393.384 858.562 395.403C859.063 397.422 860.151 399.247 861.688 400.648C863.225 402.048 865.143 402.961 867.2 403.271C869.256 403.581 871.358 403.274 873.239 402.389C875.121 401.504 876.698 400.081 877.771 398.299C878.844 396.517 879.365 394.457 879.268 392.38H879.225Z" fill="#6C63FF"/>
<path d="M860.479 463.568C859.377 465.714 857.57 467.415 855.363 468.386C853.155 469.358 850.681 469.54 848.355 468.903C846.028 468.266 843.992 466.849 842.587 464.888C841.181 462.928 840.492 460.544 840.635 458.135C840.779 455.727 841.745 453.442 843.373 451.662C845.001 449.881 847.191 448.715 849.576 448.359C851.961 448.002 854.396 448.477 856.473 449.703C858.55 450.929 860.143 452.833 860.983 455.094L854.416 460.442L861.641 458.733C861.648 460.415 861.25 462.074 860.479 463.568V463.568Z" fill="#6C63FF"/>
<path d="M855.287 443.142C852.706 443.266 850.17 442.435 848.163 440.808C846.155 439.18 844.817 436.87 844.404 434.319C843.991 431.767 844.532 429.153 845.924 426.975C847.315 424.797 849.46 423.208 851.948 422.511L851.897 426.842L854.279 422.135C857.065 422.007 859.787 422.991 861.848 424.87C863.909 426.749 865.14 429.37 865.271 432.156C865.336 433.536 865.129 434.915 864.661 436.214C864.193 437.513 863.474 438.708 862.545 439.729C861.615 440.75 860.493 441.578 859.243 442.165C857.994 442.752 856.641 443.087 855.261 443.151L855.287 443.142Z" fill="#6C63FF"/>
<path d="M880.805 426.159C879.175 426.242 877.549 425.944 876.054 425.289C874.559 424.635 873.237 423.641 872.193 422.387C871.148 421.132 870.41 419.652 870.037 418.063C869.663 416.474 869.665 414.82 870.041 413.231C870.417 411.643 871.158 410.164 872.204 408.911C873.251 407.659 874.575 406.667 876.071 406.015C877.567 405.363 879.194 405.068 880.824 405.154C882.453 405.24 884.04 405.704 885.459 406.51L883.598 411.636L887.424 407.962C888.443 408.888 889.27 410.006 889.856 411.252C890.442 412.498 890.776 413.848 890.84 415.224C890.891 416.197 890.802 417.172 890.575 418.12C890.04 420.339 888.797 422.324 887.034 423.774C885.272 425.224 883.085 426.061 880.805 426.159V426.159Z" fill="#6C63FF"/>
<path opacity="0.1" d="M877.816 395.182C875.39 395.455 873.025 396.207 870.591 396.361C868.157 396.515 865.467 395.925 863.938 394.028C863.224 392.929 862.576 391.788 861.999 390.611C861.333 389.577 860.424 388.72 859.352 388.117C858.671 389.45 858.282 390.913 858.211 392.409C858.141 393.905 858.39 395.398 858.943 396.79C859.496 398.181 860.34 399.438 861.418 400.477C862.496 401.516 863.783 402.313 865.193 402.814C866.604 403.315 868.105 403.509 869.597 403.383C871.088 403.258 872.536 402.814 873.842 402.084C875.149 401.353 876.284 400.352 877.173 399.147C878.061 397.942 878.682 396.561 878.994 395.096C878.602 395.113 878.209 395.139 877.816 395.182Z" fill="black"/>
<path opacity="0.1" d="M880.805 426.159C878.993 426.242 877.191 425.856 875.572 425.036C873.954 424.217 872.574 422.994 871.568 421.484C870.562 419.975 869.963 418.231 869.829 416.421C869.695 414.612 870.031 412.798 870.805 411.157C871.64 411.717 872.359 412.434 872.922 413.267C873.547 414.467 874.243 415.628 875.006 416.744C876.637 418.675 879.439 419.307 881.975 419.188C884.511 419.068 886.963 418.333 889.49 418.12C889.841 418.12 890.199 418.06 890.549 418.051C890.028 420.279 888.794 422.276 887.036 423.739C885.277 425.202 883.09 426.052 880.805 426.159Z" fill="black"/>
<path opacity="0.1" d="M855.287 443.142C853.49 443.23 851.701 442.855 850.09 442.052C848.48 441.25 847.103 440.047 846.09 438.56C845.078 437.072 844.464 435.349 844.309 433.556C844.153 431.763 844.46 429.96 845.201 428.32C846.063 428.894 846.815 429.617 847.422 430.456C848.276 431.609 848.745 432.942 849.702 434.001C851.478 435.983 854.459 436.675 857.149 436.615C859.839 436.555 862.273 435.915 864.835 435.718C864.201 437.788 862.944 439.612 861.235 440.941C859.526 442.27 857.449 443.038 855.287 443.142Z" fill="black"/>
<path opacity="0.1" d="M860.479 463.568C859.226 465.915 857.13 467.699 854.614 468.562C852.098 469.426 849.349 469.304 846.919 468.221C844.49 467.139 842.56 465.176 841.519 462.727C840.478 460.279 840.402 457.527 841.307 455.025C842.175 455.592 842.952 456.286 843.613 457.084C844.62 458.306 845.321 459.647 846.431 460.826C848.583 462.936 852.05 463.799 855.142 463.884C856.926 463.883 858.708 463.777 860.479 463.568V463.568Z" fill="black"/>
<path d="M385.972 370.552C387.005 370.552 387.842 369.711 387.842 368.673C387.842 367.635 387.005 366.793 385.972 366.793C384.939 366.793 384.102 367.635 384.102 368.673C384.102 369.711 384.939 370.552 385.972 370.552Z" fill="#E8E8F0"/>
</g>
<defs>
<clipPath id="clip0">
<rect width="936" height="491" fill="white"/>
</clipPath>
</defs>
</svg>
