<svg width="84" height="86" viewBox="0 0 84 86" fill="none" xmlns="http://www.w3.org/2000/svg">
<path d="M21 82L24 64L24.5 69L28 82L27 82L24.5 77L24.5 82L21 82Z" fill="black"/>
<path d="M24 57L24 64M24 64L21 82L24.5 82L24.5 77L27 82L28 82L24.5 69L24 64Z" stroke="black"/>
<circle r="3" transform="matrix(-1 -8.42937e-08 -8.42937e-08 1 24 67)" fill="black"/>
<path d="M32.6256 28.7114L66.5667 10.3266L57.0208 27.6508L66.9203 37.5502C53.6705 41.0898 44.8752 49.562 41.1109 63.3596L31.2114 53.4601L12.8266 64.0668L32.6256 28.7114Z" fill="black" stroke="black"/>
</svg>
