<svg width="188" height="93" viewBox="0 0 188 93" fill="none" xmlns="http://www.w3.org/2000/svg">
<g filter="url(#filter0_d)">
<path d="M50.1756 9.85938L15.91 24.7656L50.1756 39.4375V49.1875L4.89438 28.375V21.1562L50.1756 0.25V9.85938ZM97.375 6.8125C101.25 6.8125 104.781 7.76562 107.969 9.67188C111.156 11.5469 113.703 14.4062 115.609 18.25C117.516 22.0625 118.469 26.75 118.469 32.3125C118.469 38.0312 117.359 43.125 115.141 47.5938C112.922 52.0625 109.781 55.5469 105.719 58.0469C101.688 60.5156 97.0156 61.75 91.7031 61.75C88.5156 61.75 85.5938 61.2969 82.9375 60.3906L83.0781 67.5156V84.7188H72.7656V7.5625H82.0938V13.3281C83.8438 11.4844 85.875 9.9375 88.1875 8.6875C90.5 7.4375 93.5625 6.8125 97.375 6.8125ZM107.969 33.2031C107.969 27.0469 106.812 22.4688 104.5 19.4688C102.219 16.4375 98.8906 14.9219 94.5156 14.9219C92.2344 14.9219 90.125 15.3594 88.1875 16.2344C86.2812 17.0781 84.5781 18.0938 83.0781 19.2812V51.8594C84.0469 52.7031 85.2969 53.3125 86.8281 53.6875C88.3906 54.0625 90.3438 54.25 92.6875 54.25C95.625 54.25 98.25 53.4375 100.562 51.8125C102.875 50.1875 104.688 47.7969 106 44.6406C107.312 41.4844 107.969 37.6719 107.969 33.2031ZM183.106 21.1562V28.375L137.824 49.1875V39.4375L172.09 24.7656L137.824 9.85938V0.25L183.106 21.1562Z" fill="#6A61FF"/>
</g>
<defs>
<filter id="filter0_d" x="0.894287" y="0.25" width="186.211" height="92.4688" filterUnits="userSpaceOnUse" color-interpolation-filters="sRGB">
<feFlood flood-opacity="0" result="BackgroundImageFix"/>
<feColorMatrix in="SourceAlpha" type="matrix" values="0 0 0 0 0 0 0 0 0 0 0 0 0 0 0 0 0 0 127 0"/>
<feOffset dy="4"/>
<feGaussianBlur stdDeviation="2"/>
<feColorMatrix type="matrix" values="0 0 0 0 0 0 0 0 0 0 0 0 0 0 0 0 0 0 0.25 0"/>
<feBlend mode="normal" in2="BackgroundImageFix" result="effect1_dropShadow"/>
<feBlend mode="normal" in="SourceGraphic" in2="effect1_dropShadow" result="shape"/>
</filter>
</defs>
</svg>
